<?xml version="1.0" standalone="no"?>
<!DOCTYPE svg PUBLIC "-//W3C//DTD SVG 20010904//EN"
 "http://www.w3.org/TR/2001/REC-SVG-20010904/DTD/svg10.dtd">
<svg version="1.0" xmlns="http://www.w3.org/2000/svg"
 width="500.000000pt" height="369.000000pt" viewBox="0 0 500.000000 369.000000"
 preserveAspectRatio="xMidYMid meet">
<metadata>
Created by potrace 1.14, written by Peter Selinger 2001-2017
</metadata>
<g transform="translate(0.000000,369.000000) scale(0.100000,-0.100000)"
fill="#7a11d1" stroke="none">
<path d="M4953 3628 c-50 -234 -232 -444 -532 -612 -181 -102 -387 -181 -650
-251 -332 -87 -628 -222 -770 -350 -23 -21 -41 -33 -41 -27 0 6 5 14 10 17 18
11 68 119 84 182 20 77 20 212 1 287 -61 235 -269 406 -512 423 -269 19 -509
-152 -587 -416 -20 -70 -21 -218 -1 -295 37 -141 147 -282 278 -356 32 -18 56
-38 54 -44 -44 -122 -627 -1970 -627 -1989 0 -72 157 -134 440 -174 180 -25
634 -24 815 1 234 32 394 85 430 140 15 23 2 66 -265 902 -239 747 -327 1021
-356 1116 -4 12 6 23 34 37 21 11 60 36 85 55 26 20 47 34 47 31 0 -2 -11 -20
-25 -40 -85 -127 -86 -291 -2 -433 18 -28 34 -52 37 -52 3 0 4 45 2 99 -3 84
0 110 21 169 57 164 176 281 397 392 110 55 286 113 430 140 325 61 385 75
506 115 244 80 405 172 536 306 60 62 87 99 123 172 65 132 78 196 73 342 -3
66 -9 130 -14 143 -9 20 -11 17 -21 -30z m-2488 -1465 c46 -3 103 -1 134 6 30
6 56 10 58 8 2 -2 35 -105 74 -228 55 -173 72 -242 76 -305 5 -74 4 -83 -16
-103 -27 -27 -80 -28 -114 -1 -39 31 -78 105 -118 225 -23 70 -41 110 -50 110
-9 0 -27 -38 -49 -105 -40 -119 -83 -203 -118 -231 -38 -29 -88 -25 -124 12
-29 29 -30 33 -24 91 3 34 31 140 62 237 100 316 94 303 113 296 9 -3 52 -9
96 -12z m55 -622 c0 -19 95 -113 134 -133 55 -29 136 -29 194 1 24 12 45 21
47 19 1 -2 89 -277 195 -612 218 -689 207 -617 101 -657 -135 -50 -323 -78
-587 -86 -337 -10 -650 28 -816 99 -42 18 -48 24 -48 49 0 16 70 251 156 522
86 270 170 537 187 592 17 55 32 101 32 103 1 1 23 -10 50 -24 103 -58 213
-28 300 83 39 50 55 63 55 44z"/>
<path d="M13 3613 c-4 -27 -7 -95 -7 -153 2 -123 30 -225 91 -329 46 -78 166
-203 248 -258 159 -107 409 -203 645 -248 72 -14 188 -36 260 -50 406 -78 700
-250 805 -470 41 -86 59 -179 51 -265 -6 -61 -5 -64 10 -45 32 39 76 145 83
200 19 140 -22 240 -153 371 -175 175 -443 300 -886 415 -328 84 -646 238
-846 408 -69 58 -147 151 -192 228 -36 60 -82 184 -82 219 0 42 -18 26 -27
-23z"/>
<path d="M2310 3600 c-241 -29 -371 -102 -297 -166 37 -32 124 -62 230 -79
121 -20 403 -20 524 0 148 24 253 72 253 115 0 44 -107 95 -253 120 -85 15
-366 21 -457 10z m448 -56 c124 -21 228 -61 210 -80 -19 -18 -151 -55 -250
-70 -131 -19 -376 -14 -493 10 -85 17 -185 54 -185 67 0 15 77 45 162 64 162
36 378 39 556 9z"/>
<path d="M4870 2992 c0 -19 -102 -123 -162 -163 -86 -59 -230 -126 -343 -160
-336 -103 -425 -134 -544 -195 -81 -41 -147 -82 -182 -114 l-54 -50 58 25
c118 51 247 77 580 115 129 15 223 42 327 93 158 78 288 236 320 393 7 30 9
58 6 61 -3 4 -6 1 -6 -5z"/>
<path d="M120 2970 c1 -40 42 -151 80 -214 51 -85 147 -169 255 -222 116 -57
209 -80 403 -99 228 -23 390 -56 511 -106 l46 -19 -45 41 c-93 85 -293 180
-514 245 -327 95 -418 130 -542 208 -67 43 -147 116 -175 161 -19 30 -19 30
-19 5z"/>
<path d="M4625 2507 c-23 -36 -123 -103 -207 -138 -94 -41 -275 -86 -392 -99
-221 -25 -374 -58 -519 -111 -83 -30 -187 -87 -187 -102 0 -4 5 -5 12 -1 6 4
39 14 72 22 47 11 137 15 386 17 370 2 416 9 560 77 119 57 206 144 261 263
40 84 47 122 14 72z"/>
<path d="M368 2472 c52 -135 146 -238 275 -302 147 -72 161 -74 537 -75 329
-1 394 -6 495 -40 l20 -7 -20 17 c-33 28 -150 84 -229 109 -111 36 -245 63
-431 86 -311 39 -495 104 -618 219 l-48 45 19 -52z"/>
<path d="M4359 2104 c-90 -97 -351 -154 -705 -154 -94 0 -211 -7 -276 -16
-117 -16 -280 -62 -313 -89 -20 -16 -20 -16 0 -11 98 23 329 11 515 -26 78
-16 142 -22 245 -22 125 0 149 3 221 27 141 47 252 136 317 256 33 60 31 73
-4 35z"/>
<path d="M610 2116 c0 -21 79 -131 127 -177 116 -111 216 -149 408 -156 115
-5 147 -2 275 23 128 25 168 28 338 29 215 0 223 5 79 50 -139 44 -237 56
-537 65 -284 9 -371 19 -485 56 -68 23 -135 57 -174 89 -17 15 -31 24 -31 21z"/>
<path d="M1997 1724 c-48 -26 -261 -93 -358 -114 -122 -26 -312 -36 -408 -21
-94 15 -184 45 -244 81 -63 39 -49 13 35 -65 185 -172 394 -229 598 -163 106
33 230 115 349 227 67 64 75 79 28 55z"/>
<path d="M3011 1694 c115 -121 282 -226 405 -258 128 -33 264 -16 391 48 72
36 190 130 230 183 l24 31 -77 -38 c-185 -93 -413 -101 -709 -25 -71 19 -170
50 -219 69 l-90 36 45 -46z"/>
</g>
</svg>
